# xmcd
#
# Track frame offsets:
#	150
#	16878
#	32075
#	51425
#	75228
#	96760
#	116885
#	135798
#	161885
#	173695
#	193335
#	214253
#	232603
#	250568
#	261110
#
# Disc length: 3769 seconds
#
# Revision: 0
# Processed by: cddbd v1.5.2PL0 Copyright (c) Steve Scherf et al.
# Submitted via: EZCDAudioConverter 7.1.5.1
#
DISCID=bc0eb70f
DTITLE=群星 - 闭上眼睛去旅行2 DISK-B
DYEAR=2004
DGENRE=
TTITLE0=杨千嬅 - 写给城市的诗
TTITLE1=林忆莲 - 飞的理由
TTITLE2=Don Mclean - And I love you so
TTITLE3=江美琪 - 我多么羡慕你
TTITLE4=袁惟仁 - 重播
TTITLE5=林嘉欣 - 我不怕
TTITLE6=刘虹嬅 - 无言歌
TTITLE7=侯湘婷 - 一起去巴黎
TTITLE8=Julie London - Fly me to the moom
TTITLE9=张宇 - 月亮惹的祸
TTITLE10=戴爱玲 - 对的人
TTITLE11=伍思凯 - 最爱是你
TTITLE12=优客李林 - Just for you
TTITLE13=Chet Baker - My funy valentine
TTITLE14=林慧萍 - 我是如此爱你
EXTD=
EXTT0=
EXTT1=
EXTT2=
EXTT3=
EXTT4=
EXTT5=
EXTT6=
EXTT7=
EXTT8=
EXTT9=
EXTT10=
EXTT11=
EXTT12=
EXTT13=
EXTT14=
PLAYORDER=
